<?xml version="1.0" encoding="UTF-8" standalone="no"?>
<!DOCTYPE svg PUBLIC "-//W3C//DTD SVG 1.1//EN" "http://www.w3.org/Graphics/SVG/1.1/DTD/svg11.dtd">
<svg viewBox="0 0 729 734" xmlns:xlink="http://www.w3.org/1999/xlink" height="734.0pt" width="729.0pt" xmlns="http://www.w3.org/2000/svg" version="1.1"><defs>
<path d="M 0.00 0.00 L 426.52 0.00 C 425.87 0.87 425.25 1.76 424.68 2.68 C 391.55 60.13 358.37 117.56 325.24 175.00 C 358.92 233.22 392.46 291.59 426.20 349.78 C 493.40 349.74 560.60 349.74 627.80 349.78 C 660.47 293.44 692.95 236.93 725.55 180.55 C 726.67 178.67 727.49 176.71 729.00 175.09 L 729.00 559.08 C 727.70 557.29 726.64 555.37 725.57 553.44 C 692.96 497.08 660.49 440.51 627.81 384.22 C 560.62 384.29 493.40 384.22 426.21 384.25 C 424.86 386.26 423.70 388.38 422.50 390.48 C 390.08 446.65 357.65 502.82 325.24 559.00 C 358.92 617.32 392.60 675.66 426.25 734.00 L 0.00 734.00 L 0.00 0.00 Z" id="p0" />
<path d="M 426.52 0.00 L 627.68 0.00 L 628.21 0.82 L 628.58 1.42 C 661.64 58.68 694.69 115.95 727.74 173.21 L 729.00 175.08 L 729.00 175.09 C 727.49 176.71 726.67 178.67 725.55 180.55 C 692.95 236.93 660.47 293.44 627.80 349.78 C 560.60 349.74 493.40 349.74 426.20 349.78 C 392.46 291.59 358.92 233.22 325.24 175.00 C 358.37 117.56 391.55 60.13 424.68 2.68 C 425.25 1.76 425.87 0.87 426.52 0.00 Z" id="p1" />
<path d="M 627.68 0.00 L 729.00 0.00 L 729.00 175.08 L 727.74 173.21 C 694.69 115.95 661.64 58.68 628.58 1.42 L 628.21 0.82 L 627.68 0.00 Z" id="p2" />
<path d="M 429.05 3.33 C 494.35 3.33 559.65 3.33 624.95 3.33 C 626.32 3.15 626.78 4.69 627.42 5.58 C 659.93 62.06 692.66 118.49 725.13 174.99 C 692.63 231.48 659.92 287.92 627.41 344.40 C 626.78 345.26 626.26 346.87 624.95 346.67 C 559.65 346.67 494.35 346.67 429.05 346.67 C 427.74 346.87 427.22 345.26 426.59 344.41 C 394.08 287.92 361.36 231.48 328.87 174.99 C 361.34 118.49 394.07 62.06 426.58 5.58 C 427.22 4.69 427.68 3.15 429.05 3.33 Z" id="p3" />
<path d="M 488.86 131.92 C 495.23 131.65 501.62 131.88 508.00 131.80 C 526.65 131.89 545.35 131.62 563.98 131.94 C 564.02 138.25 564.12 144.57 563.92 150.87 C 554.95 150.91 545.95 150.71 536.98 150.97 C 536.73 176.27 536.92 201.62 536.89 226.93 C 529.92 227.08 522.94 226.99 515.97 226.97 C 515.73 201.68 515.92 176.33 515.88 151.03 C 506.93 150.63 497.92 150.94 488.96 150.88 C 488.47 144.66 488.66 138.16 488.86 131.92 Z" id="p4" />
<path d="M 101.98 200.25 C 168.20 200.27 234.45 200.20 300.66 200.28 C 334.01 258.53 367.41 316.75 400.76 374.99 C 367.41 433.25 334.01 491.47 300.66 549.72 C 233.89 549.77 167.11 549.78 100.34 549.72 C 66.99 491.47 33.59 433.24 0.24 375.00 C 32.97 317.83 65.76 260.68 98.48 203.51 C 99.60 202.01 99.65 199.84 101.98 200.25 Z" id="p5" />
<path d="M 103.06 203.33 C 168.21 203.31 233.60 203.36 298.73 203.31 C 301.05 207.03 303.11 210.89 305.32 214.67 C 335.91 268.10 366.62 321.54 397.14 375.00 C 364.40 432.23 331.63 489.57 298.73 546.69 C 233.24 546.66 167.76 546.66 102.27 546.69 C 100.08 543.18 98.14 539.54 96.05 535.98 C 65.34 482.32 34.50 428.68 3.86 375.00 C 36.07 318.57 68.51 262.19 100.75 205.77 C 101.35 205.06 101.92 203.06 103.06 203.33 Z" id="p6" />
<path d="M 138.00 324.87 C 145.25 324.81 152.63 324.62 159.87 324.99 C 163.34 345.98 167.03 366.95 170.54 387.91 C 170.77 388.53 171.04 389.14 171.35 389.73 C 177.08 368.16 183.61 346.78 189.37 325.22 C 194.44 324.29 199.85 325.06 205.00 324.79 C 206.57 324.92 209.17 324.36 210.40 325.45 C 216.38 346.91 222.71 368.33 228.51 389.84 C 229.71 387.14 229.82 384.37 230.36 381.51 C 233.57 362.66 236.74 343.79 240.04 324.95 C 247.63 324.70 255.40 324.72 262.99 324.94 C 257.15 356.62 250.62 388.19 244.75 419.87 C 236.37 419.99 227.82 420.29 219.48 419.71 C 213.48 398.11 206.73 376.65 200.59 355.08 C 200.50 354.64 200.16 354.36 199.56 354.24 C 193.23 376.19 186.66 398.10 180.03 419.96 C 171.74 420.01 163.43 420.07 155.13 419.93 C 149.26 389.45 143.34 358.95 137.39 328.48 C 137.39 327.49 136.11 324.47 138.00 324.87 Z" id="p7" />
<path d="M 426.21 384.25 C 493.40 384.22 560.62 384.29 627.81 384.22 C 660.49 440.51 692.96 497.08 725.57 553.44 C 726.64 555.37 727.70 557.29 729.00 559.08 L 729.00 559.11 C 727.82 560.35 727.07 561.78 726.28 563.27 C 694.93 617.58 663.58 671.90 632.23 726.21 C 630.62 728.90 629.38 731.54 627.45 734.00 L 426.25 734.00 C 392.60 675.66 358.92 617.32 325.24 559.00 C 357.65 502.82 390.08 446.65 422.50 390.48 C 423.70 388.38 424.86 386.26 426.21 384.25 Z" id="p8" />
<path d="M 429.05 387.33 C 494.35 387.33 559.65 387.33 624.95 387.33 C 626.32 387.15 626.78 388.69 627.42 389.58 C 659.93 446.06 692.66 502.49 725.13 558.99 C 692.63 615.48 659.92 671.91 627.41 728.40 C 626.78 729.26 626.26 730.87 624.95 730.67 C 559.65 730.67 494.35 730.67 429.05 730.67 C 427.74 730.87 427.22 729.26 426.59 728.41 C 394.08 671.92 361.36 615.48 328.87 558.99 C 361.34 502.49 394.07 446.06 426.58 389.58 C 427.22 388.69 427.68 387.15 429.05 387.33 Z" id="p9" />
<path d="M 530.00 509.56 C 549.64 510.14 568.54 523.87 574.05 542.87 C 566.41 542.87 558.77 542.88 551.14 542.87 C 546.32 533.66 536.33 528.31 526.00 529.17 C 516.62 529.78 508.25 535.70 503.88 543.93 C 497.74 555.22 499.56 570.17 508.60 579.40 C 514.33 585.46 522.75 588.45 531.02 587.58 C 538.88 586.54 546.23 582.15 550.26 575.23 C 551.25 573.03 553.03 573.77 555.00 573.63 C 561.37 573.82 567.79 573.39 574.13 573.85 C 570.91 585.22 562.18 595.19 551.99 600.97 C 541.77 606.78 529.36 608.71 517.86 606.34 C 499.20 602.58 483.43 586.70 479.88 568.00 C 477.88 558.05 479.10 547.46 483.30 538.22 C 491.54 520.46 510.19 508.24 530.00 509.56 Z" id="p10" />
<path d="M 729.00 559.11 L 729.00 734.00 L 627.45 734.00 C 629.38 731.54 630.62 728.90 632.23 726.21 C 663.58 671.90 694.93 617.58 726.28 563.27 C 727.07 561.78 727.82 560.35 729.00 559.11 Z" id="p11" /></defs><g stroke-width="10pt">
<use stroke="#ffffff" xlink:href="#p0" />
<use stroke="#200e04" xlink:href="#p1" />
<use stroke="#ffffff" xlink:href="#p2" />
<use stroke="#fd7022" xlink:href="#p3" />
<use stroke="#200e04" xlink:href="#p4" />
<use stroke="#200e04" xlink:href="#p5" />
<use stroke="#fd7022" xlink:href="#p6" />
<use stroke="#200e04" xlink:href="#p7" />
<use stroke="#200e04" xlink:href="#p8" />
<use stroke="#fd7022" xlink:href="#p9" />
<use stroke="#200e04" xlink:href="#p10" />
<use stroke="#ffffff" xlink:href="#p11" /></g>
<g>
<use xlink:href="#p0" fill="#ffffff" />
<use xlink:href="#p1" fill="#200e04" />
<use xlink:href="#p2" fill="#ffffff" />
<use xlink:href="#p3" fill="#fd7022" />
<use xlink:href="#p4" fill="#200e04" />
<use xlink:href="#p5" fill="#200e04" />
<use xlink:href="#p6" fill="#fd7022" />
<use xlink:href="#p7" fill="#200e04" />
<use xlink:href="#p8" fill="#200e04" />
<use xlink:href="#p9" fill="#fd7022" />
<use xlink:href="#p10" fill="#200e04" />
<use xlink:href="#p11" fill="#ffffff" /></g></svg>